<svg width="1200" height="540" viewBox="0 0 1200 540" fill="none" xmlns="http://www.w3.org/2000/svg">
  <rect width="1200" height="540" rx="28" fill="#F7F3EB"/>
  <rect x="28" y="28" width="1144" height="484" rx="24" fill="#FFFCF7" stroke="#DDD3C3" stroke-width="2"/>
  <text x="72" y="88" fill="#1D2D35" font-family="Verdana" font-size="30" font-weight="700">Topologi Lab Aman</text>
  <text x="72" y="120" fill="#6A7880" font-family="Verdana" font-size="18">Semua praktik dilakukan di jaringan terisolasi. Tidak ada target publik.</text>
  <rect x="80" y="180" width="220" height="180" rx="24" fill="#E7EFF3" stroke="#BFCED7" stroke-width="2"/>
  <text x="140" y="230" fill="#16313D" font-family="Verdana" font-size="26" font-weight="700">Attacker VM</text>
  <text x="133" y="268" fill="#50636B" font-family="Verdana" font-size="18">Kali Linux atau</text>
  <text x="136" y="294" fill="#50636B" font-family="Verdana" font-size="18">Parrot OS</text>
  <text x="125" y="326" fill="#50636B" font-family="Verdana" font-size="18">Nmap, Burp, FFUF</text>
  <rect x="397" y="204" width="406" height="132" rx="24" fill="#F5EEE2" stroke="#D7C9B4" stroke-width="2"/>
  <text x="490" y="250" fill="#7B6548" font-family="Verdana" font-size="18" font-weight="700">ISOLATED NETWORK</text>
  <text x="450" y="285" fill="#243741" font-family="Verdana" font-size="24" font-weight="700">Host-Only atau NAT Network</text>
  <text x="496" y="313" fill="#596B72" font-family="Verdana" font-size="17">Hanya untuk lab internal</text>
  <rect x="900" y="114" width="220" height="118" rx="24" fill="#E4F0EA" stroke="#BFD3C8" stroke-width="2"/>
  <text x="970" y="160" fill="#17333C" font-family="Verdana" font-size="24" font-weight="700">Target VM</text>
  <text x="931" y="193" fill="#51646B" font-family="Verdana" font-size="18">Metasploitable /</text>
  <text x="964" y="217" fill="#51646B" font-family="Verdana" font-size="18">custom lab</text>
  <rect x="900" y="286" width="220" height="118" rx="24" fill="#F4E7DD" stroke="#D8C5B9" stroke-width="2"/>
  <text x="936" y="332" fill="#17333C" font-family="Verdana" font-size="24" font-weight="700">Web App Lab</text>
  <text x="953" y="365" fill="#51646B" font-family="Verdana" font-size="18">DVWA / Juice Shop</text>
  <rect x="80" y="404" width="1040" height="62" rx="18" fill="#F2EFE9" stroke="#D9CFBF"/>
  <text x="106" y="442" fill="#7B6548" font-family="Verdana" font-size="16" font-weight="700">CATATAN</text>
  <text x="206" y="442" fill="#31464F" font-family="Verdana" font-size="18">Target sengaja rentan, jangkauan dibatasi, dan output praktik difokuskan pada pembelajaran serta reporting.</text>
  <path d="M300 269H397" stroke="#CAB89B" stroke-width="6" stroke-linecap="round"/>
  <path d="M377 254L405 269L377 284" stroke="#CAB89B" stroke-width="6" stroke-linecap="round" stroke-linejoin="round"/>
  <path d="M803 236H900" stroke="#CAB89B" stroke-width="6" stroke-linecap="round"/>
  <path d="M880 221L908 236L880 251" stroke="#CAB89B" stroke-width="6" stroke-linecap="round" stroke-linejoin="round"/>
  <path d="M803 304H900" stroke="#CAB89B" stroke-width="6" stroke-linecap="round"/>
  <path d="M880 289L908 304L880 319" stroke="#CAB89B" stroke-width="6" stroke-linecap="round" stroke-linejoin="round"/>
</svg>
